<?xml version="1.0" encoding="UTF-8"?>
<!DOCTYPE svg  PUBLIC '-//W3C//DTD SVG 20010904//EN'  'http://www.w3.org/TR/2001/REC-SVG-20010904/DTD/svg10.dtd'>
<svg width="2e3pt" height="1090pt" version="1.0" viewBox="0 0 2e3 1090" xmlns="http://www.w3.org/2000/svg">
<g transform="translate(0 1090) scale(.1 -.1)">
<path fill="#1a1a1a" d="m12640 5445v-1505h395 395v145 145h-240-240l2 1213 3 1212 243 3 242 2v145 145h-400-400v-1505zm3220 1360v-145h240 240v-1215-1215h-240-240v-145-145h395 395v1505 1505h-395-395v-145zm-13390-527v-433l-45 51c-54 62-117 104-210 140-64 25-82 27-210 27s-146-2-215-28c-91-34-138-63-208-129-105-99-163-202-213-377-18-62-22-110-26-289-4-204-3-221 21-325 27-119 62-213 103-278 74-119 189-217 310-264 62-25 80-27 218-27 131-1 159 2 221 22 77 26 187 101 230 158 15 19 30 34 33 34 4 0 13-43 20-95l14-95h143 144v1170 1170h-165-165v-432zm-226-514c75-30 157-109 197-189 24-50 24-50 24-385v-335l-37-56c-49-74-117-133-187-161-80-32-221-31-306 2-126 49-227 194-262 374-16 86-13 296 5 406 20 117 117 275 196 318s111 51 208 51c83 1 108-3 162-25zm12978 919c-14-33-92-157-109-174-9-9-19-6-45 13-51 39-166 93-238 112-53 15-96 17-220 14-135-4-165-8-233-31-181-62-326-188-410-357-50-101-64-142-104-315-25-106-26-122-27-440 0-277 2-345 17-420 27-135 66-262 104-338l34-68-61-102c-34-56-91-149-126-207s-64-108-64-113c0-4 64-6 141-5l142 3 62 103c34 56 66 107 72 113 8 8 27 0 65-25 30-20 95-51 144-68 83-29 100-32 247-36 182-4 258 9 367 64 185 93 295 228 375 457 65 188 95 487 76 757-19 283-53 441-130 613l-30 66 81 133c44 73 86 142 92 153s24 39 39 62c15 24 27 47 27 53s-51 10-138 10h-138l-12-27zm-428-347c33-16 79-49 103-72l43-44-39-62c-21-35-79-128-129-208-76-121-133-213-197-321-25-42-147-242-195-319-29-47-80-129-113-183s-64-94-68-90c-38 40-63 505-39 725 7 62 23 154 36 205 53 212 130 312 291 379 50 21 71 24 153 22 81-3 103-7 154-32zm280-453c3-26 11-70 16-98 17-87 23-392 11-521-22-245-62-382-139-485-139-187-390-221-578-79-30 22-54 45-54 50s27 53 60 107 66 107 73 118c6 11 32 54 58 95s62 102 82 135c19 33 66 110 103 171 38 61 122 198 187 303 148 241 160 260 168 255 3-2 9-25 13-51zm-11187 794c-55-17-95-62-113-125-19-64-13-120 19-176 37-66 66-81 167-84 111-5 155 15 189 85 49 100 14 248-66 287-48 23-146 30-196 13zm3665-2c-75-23-107-66-118-158-9-76 18-160 61-193 66-50 209-51 275-3 38 29 60 86 60 157 0 79-14 123-52 159-54 51-139 65-226 38zm3664-1c-79-29-115-89-116-192 0-78 25-132 80-168 36-24 46-26 132-22 107 4 142 21 174 85 24 50 25 165 1 210-45 85-168 125-271 87zm-1896-610c-147-14-346-101-429-189-94-99-143-252-121-373 15-84 63-174 118-223 105-92 169-116 545-204 253-58 324-85 379-142 32-33 33-37 33-113 0-73-2-81-31-117-60-73-174-112-336-113-215 0-355 64-416 192-17 35-32 72-34 83-3 17-10 20-43 18-22-1-93-5-159-9l-118-6 4-54c11-135 136-298 287-374 165-82 256-102 471-102 234 1 362 33 512 128 206 131 261 417 118 616-93 131-292 213-700 288-187 35-273 79-306 157-20 46-17 77 10 131 30 60 46 74 126 111 120 56 267 63 400 18 82-27 169-108 192-177l15-45 153-3c84-1 157 1 161 5 11 12-18 110-53 183-40 82-130 173-218 220-71 38-72 39-175 69-70 21-279 34-385 25zm8655 0c-11-2-45-9-75-15-59-12-172-64-230-106-19-14-57-48-83-77-58-62-67-55-67 56 0 42-3 83-6 92-5 14-28 16-150 16h-144v-830-830h165 165v528c0 530 5 624 37 685 31 61 111 133 186 168 70 33 76 34 197 34 116 0 129-2 176-27 91-48 155-144 174-259 6-38 10-279 10-596v-533h165 165v574c0 628-1 643-60 793-61 159-154 247-319 305-55 18-258 34-306 22zm-14635-169v-135h240 240v-555-555h-250-250v-140-140h650 650v140 140h-245-245v690 690h-395-395v-135zm1615 113c4-13 17-48 30-78s33-80 44-110c12-30 46-118 77-195s65-164 75-194c11-30 23-59 27-65 10-13 44-96 103-251 23-60 51-130 61-154 11-25 26-61 33-80 8-20 30-74 50-121s40-96 45-110c6-20 41-106 107-267 4-10 47-13 168-13h162l30 83c17 45 41 107 53 137s35 89 50 130 48 122 72 180c25 58 55 132 68 165 12 33 35 89 50 125 16 36 46 112 69 170 67 175 104 267 157 390 38 91 104 262 104 271 0 5-76 9-170 9-147 0-170-2-170-15 0-9-7-30-17-48-9-18-20-45-24-62-7-30-17-55-134-365-37-96-73-193-80-215-76-221-216-585-226-585-4 0-11 15-14 33-9 37-47 139-81 214-13 28-24 59-24 68s-6 28-14 43-28 68-46 117c-18 50-44 119-57 155-14 36-33 90-43 120-10 31-27 76-39 100-11 25-53 134-93 242l-73 198h-168-168l6-22zm2045-113v-135l163-1c89-1 198-3 242-5l80-3 3-508c2-279 0-527-3-550l-6-43h-250-249v-140-140h660 660v140 140h-249-248l-7 31c-3 17-6 328-6 690v659h-395-395v-135zm3670 0v-135l143-1c78-1 185-2 237-3l95-1 3-552 2-553h-250-250v-79c0-43 3-106 6-140l7-61h648 649v140 140h-250-250v690 690h-395-395v-135z"/>
</g>
</svg>
