<?xml version="1.0" encoding="UTF-8"?>
<!DOCTYPE svg  PUBLIC '-//W3C//DTD SVG 20010904//EN'  'http://www.w3.org/TR/2001/REC-SVG-20010904/DTD/svg10.dtd'>
<svg width="2e3pt" height="1090pt" version="1.0" viewBox="0 0 2e3 1090" xmlns="http://www.w3.org/2000/svg">
<g transform="translate(0 1090) scale(.1 -.1)">
<path fill="#ffffff" d="m13003 6942-363-2v-1500-1500h395 395l2 110c1 61 2 125 2 143l1 32-480 10-3 1204c-1 663 1 1208 6 1213 4 4 112 8 239 9 197 0 232 3 237 16 3 8 6 71 6 139 0 111-2 124-17 125-10 0-27 1-38 2s-183 1-382-1zm2856-7c0-3-1-61-1-130s1-129 1-135c1-6 92-11 239-12l237-3v-1210-1210l-480-10v-140-140l398-3 397-2v1500 1500h-395c-217 0-395-2-396-5zm-13389-657c0-431 0-433-19-403-36 56-69 81-186 140-164 82-430 67-592-34-61-38-159-136-199-198-43-67-87-178-110-278-27-115-27-472 0-595 64-296 230-495 461-554 141-35 300-30 419 15 64 23 151 88 198 147 18 22 36 41 41 41 4 1 7-13 7-31 0-17 5-60 11-95l11-63h139 139v1170 1170h-160-160v-432zm-213-521c74-35 154-116 187-187 20-43 21-61 21-375v-330l-26-50c-32-60-120-146-169-164-19-7-46-18-59-25-13-6-67-11-120-11-119 0-182 23-262 94-107 95-169 275-169 486 0 334 123 549 342 595 77 16 183 3 255-33zm12932 866c-76-130-73-128-123-94-127 87-246 121-428 121-158 0-228-16-363-80-274-131-409-407-446-907-26-356 20-698 122-907 16-32 29-67 29-78 0-12-53-109-117-216-65-108-119-199-121-204-2-4 59-8 136-8h139l50 78c28 42 61 96 74 119l23 41 41-28c148-101 349-146 546-121 174 22 303 84 420 202 123 124 193 289 240 567 32 185 31 562-1 741-31 176-54 261-98 361l-39 88 35 58c19 33 73 121 119 197 46 75 81 142 78 147-4 6-61 10-135 10h-129l-52-87zm-427-277c72-30 156-91 164-120 4-16-18-59-82-162-48-76-94-151-103-166-34-58-157-256-196-318-23-36-45-72-48-80-4-8-15-27-25-42-9-15-50-80-89-145-162-264-182-293-187-284-27 43-60 395-51 541 20 317 40 422 108 559 77 155 209 239 377 240 56 0 89-5 132-23zm306-468c65-295 47-763-38-977-23-59-85-155-121-187-143-129-371-138-522-21-62 48-63 56-12 142 25 42 54 89 64 103 21 31 229 367 245 397 16 28 64 105 85 135 10 14 29 45 43 70 44 77 190 314 209 339 11 13 19 30 19 37 0 34 18 9 28-38zm-11161 798c-120-33-176-175-115-294 39-75 63-87 178-87s140 12 178 86c32 60 27 170-9 224-44 67-141 96-232 71zm3654 1c-85-27-139-121-128-220 14-112 78-167 196-167 90 0 132 17 170 71 28 38 31 49 31 116 0 120-43 181-141 202-59 13-83 13-128-2zm3675 1c-84-23-143-119-134-219 11-111 75-169 188-169 109 0 161 25 198 95 20 38 19 147-1 196-19 43-76 84-137 98-53 12-63 12-114-1zm-1929-618c-233-29-412-141-494-308-33-66-38-85-41-167-5-113 11-170 73-253 86-117 213-177 515-242 284-61 313-69 385-107 73-38 105-89 105-164 0-147-133-229-370-229-163 1-280 38-359 113-42 41-91 125-91 158 0 26-16 27-150 13-69-7-136-13-149-14-23 0-24-2-18-52 4-30 23-86 43-127 75-152 227-261 443-318 85-23 117-26 271-27 150 0 188 3 265 22 261 66 406 199 438 402 21 137-23 280-113 371-89 89-204 137-475 199-49 12-108 25-130 30s-69 15-105 21c-137 25-220 73-252 146-24 55-19 92 21 155 55 87 167 132 331 132 190 0 291-52 358-184 38-73 40-75 75-74 173 2 244 6 255 13s10 23-8 90c-26 94-75 176-144 240-54 48-200 122-291 146-72 18-293 27-388 15zm8648 1c-66-11-160-44-214-74-53-30-169-126-182-149-19-35-26-17-32 79-4 53-11 101-15 105-5 5-71 7-148 6l-139-3-3-827-2-828h164 165l3 568 3 567 27 58c72 154 254 251 434 232 65-7 155-43 192-78 33-31 79-106 96-157 25-76 36-325 33-767l-2-423h163 162v556c0 346-4 582-11 627-38 256-151 409-355 483-73 27-250 39-339 25zm-14608-38c-4-3-7-64-7-134v-129l238-2 237-3 3-551 2-551-198-6c-108-4-221-4-250 0l-52 6v-142-141h650 650v140 140l-218-6c-120-4-231-4-245 0l-27 6v690 690h-388c-214 0-392-3-395-7zm1609-1c-2-4 38-113 90-242s108-269 123-310c16-41 106-266 199-500s185-464 203-512l34-88h167c164 0 167 0 173 23 4 12 59 153 122 312 131 332 129 327 310 775 75 184 146 364 160 400 13 36 31 80 39 99 10 20 12 37 7 42s-81 8-168 7l-159-3-33-90c-18-49-55-148-82-220-27-71-79-213-116-315-38-102-84-225-103-275-19-49-50-130-68-180-18-49-43-119-57-154l-24-63-18 43c-10 24-23 62-31 84-7 22-54 148-104 280s-96 255-102 273c-12 41-74 205-94 249-8 17-14 35-14 40 0 4-18 55-40 113-43 110-47 122-73 183l-17 37h-159c-88 0-162-3-165-8zm2044-127v-135h240 240v-557-558l-245 1h-245v-138-138h650 649l7 35c3 20 3 82-1 138l-7 102-246 1h-247l-3 692-2 692h-395-395v-135zm3677 128c-4-3-7-64-7-135v-128h240 240v-557-558l-490 6v-141-140h650 650v140 141l-500-6-2 690-3 690-386 3c-212 1-388-1-392-5z"/>
</g>
</svg>
