<?xml version="1.0" encoding="UTF-8"?>
<!DOCTYPE svg  PUBLIC '-//W3C//DTD SVG 20010904//EN'  'http://www.w3.org/TR/2001/REC-SVG-20010904/DTD/svg10.dtd'>
<svg width="2e3pt" height="1090pt" version="1.0" viewBox="0 0 2e3 1090" xmlns="http://www.w3.org/2000/svg">
<g transform="translate(0 1090) scale(.1 -.1)">
<path fill="#ffffff" d="m11519 8593c-19-35-37-63-41-63-3 0-11-12-17-27-6-16-19-42-28-58-78-132-91-155-149-262-20-37-43-75-50-84-8-8-14-21-14-28 0-6-34 13-75 44-41 30-79 55-85 55-5 0-10 3-10 8 0 4-10 12-23 18-12 5-53 27-91 48-171 93-381 150-691 187-115 14-445 5-545-14-109-22-255-55-282-66-13-4-50-17-83-27-67-21-298-131-303-145-2-5-8-9-14-9-41 0-340-264-430-380-162-209-337-551-389-765-6-21-15-45-21-52s-8-13-5-13c4 0 0-19-9-42-17-50-65-287-93-458-57-364-70-565-66-1090 1-250 7-489 13-530s16-124 22-185c21-194 88-551 131-700 35-123 80-259 101-305 40-89 143-292 158-308 47-53 49-42-37-178-7-10-25-41-39-69-15-27-61-108-102-180-75-130-303-531-350-615-14-25-34-57-44-72l-19-28h359c334 0 360 1 366 18 3 9 15 32 26 50 11 17 17 32 13 32s0 6 9 13c9 6 27 32 40 57 23 42 239 421 244 429 2 2 47-24 101-57 218-134 454-222 718-268 150-26 562-28 705-4 356 62 638 189 873 394 152 134 273 276 366 434 53 89 70 123 145 282 27 59 53 126 67 175 4 17 15 53 23 80 54 183 88 329 106 452 18 131 21 149 35 238 17 112 25 187 31 290 2 44 9 136 14 205 6 69 10 256 9 415-3 432-22 667-90 1070-34 203-38 225-44 234-3 5-7 22-9 38-3 28-65 249-92 331-15 46-50 131-89 216-14 30-30 65-35 78-6 13-26 50-46 83-53 91-59 106-48 113 9 6 50 76 162 272 10 19 52 90 91 158 40 68 76 133 82 145 11 24 12 26 82 140 26 43 47 80 47 82s32 58 71 125 68 125 64 128c-4 4-159 7-345 7h-337l-34-62zm-1277-903c188-37 343-119 484-254l79-76-16-27c-8-16-32-59-54-98-21-38-53-94-71-123-19-29-34-55-34-57 0-3-11-22-24-43-12-20-52-89-88-152-35-63-76-135-90-160-15-25-56-96-92-159s-63-119-59-125c3-6 3-8-2-4-6 6-115-162-115-177 0-1-39-69-86-151s-95-165-106-184-45-76-74-127c-30-50-54-94-54-97 0-4-11-25-26-47-14-22-33-55-43-72-10-18-50-86-88-152-87-151-162-282-180-315-8-14-25-43-38-65-14-22-55-94-91-159-37-66-82-143-100-172-19-29-34-56-34-59 0-4-8-19-18-33-11-15-35-56-54-92-84-154-186-324-195-327-6-2-13 9-16 24s-13 57-22 93c-20 82-31 145-45 240-6 41-15 104-20 140-60 414-62 1012-5 1495 39 323 81 542 140 715 38 111 130 303 171 357 13 17 24 34 24 38 0 19 183 201 245 244 108 75 242 131 370 156 85 16 354 19 427 5zm878-1037c0-4 11-63 24-132 13-70 29-166 36-216 6-49 15-121 20-160 5-38 12-97 14-130 3-33 11-114 17-180 19-186 16-861-5-1060-22-213-43-373-55-412-5-17-7-33-5-36 5-4-29-157-52-237-9-30-20-73-25-95-60-258-266-551-477-678-61-37-237-112-250-107-1 1-25-3-53-9-62-14-390-14-444-1-22 6-56 12-75 15-115 18-306 124-418 233l-64 61 38 68c21 37 42 78 48 90 6 13 14 23 19 23 4 0 7 5 7 11s15 36 34 67c34 57 294 512 347 607 43 78 51 91 134 235 78 136 104 181 151 267 14 27 30 53 34 58 9 12 110 186 153 265 17 30 41 72 54 92 13 21 23 40 23 43s11 22 23 43c13 20 35 57 49 82 30 53 118 208 133 232 20 34 140 243 150 263 13 23 45 79 104 182 22 39 50 89 62 110 120 212 156 275 181 318 16 28 34 60 40 73 11 21 28 30 28 15z"/>
</g>
</svg>
